#!OML:ASF H:\SpeedWalk\Project 1\Capture day 2\Session 1\male.ASF
:FULLY-SPECIFIED
:DEGREES
237
root -8.182876 19.843712 1.427311 -1.081694 3.388214 8.913445
lowerback 2.466688 -2.410903 -10.055315 
upperback -2.301818 -3.622528 0.422191 
thorax -3.154902 -1.557508 6.246397 
lowerneck -11.790861 0.209685 1.448047 
upperneck 17.398314 0.643579 -3.389384 
head 7.294248 0.092956 -1.281902 
rclavicle 0.000000 0.000000 
rhumerus -41.854754 -16.296640 -71.429065 
rradius 34.468026 
rwrist -5.852675 
rhand -12.817604 -10.463931 
rfingers 0.000000 
rthumb 13.269063 -40.021564 
lclavicle 0.000000 0.000000 
lhumerus -43.051148 1.792658 87.790526 
lradius 40.789530 
lwrist -11.750658 
lhand -6.321651 14.869828 
lfingers 0.000000 
lthumb 19.523139 43.909621 
rfemur -31.941214 -3.784435 10.364353 
rtibia 28.384342 
rfoot 21.180477 -17.359155 
rtoes 14.580196 
lfemur 16.192716 -1.064710 -32.264113 
ltibia 39.225038 
lfoot -36.186035 1.722942 
ltoes -17.962029 
238
root -8.194594 19.778943 1.539016 -1.074373 3.452796 9.009702
lowerback 2.276085 -2.436828 -10.164696 
upperback -2.365785 -3.643575 0.400407 
thorax -3.106376 -1.565848 6.276705 
lowerneck -11.779742 0.206825 1.419337 
upperneck 17.527953 0.646139 -3.376034 
head 7.334492 0.092759 -1.273466 
rclavicle 0.000000 0.000000 
rhumerus -42.232367 -16.381089 -71.192043 
rradius 34.526662 
rwrist -5.941405 
rhand -12.818575 -10.484487 
rfingers 0.000000 
rthumb 13.268125 -40.042206 
lclavicle 0.000000 0.000000 
lhumerus -43.204229 1.895078 87.744629 
lradius 40.731211 
lwrist -11.778564 
lhand -6.309018 14.847149 
lfingers 0.000000 
lthumb 19.535303 43.885726 
rfemur -31.594293 -3.947597 10.361137 
rtibia 28.530187 
rfoot 21.740580 -17.104501 
rtoes 15.117648 
lfemur 16.302469 -0.961569 -32.168337 
ltibia 39.929285 
lfoot -36.368606 1.313886 
ltoes -18.579803 
239
root -8.206024 19.714898 1.647678 -1.065615 3.511344 9.107998
lowerback 2.097247 -2.461080 -10.273387 
upperback -2.430012 -3.663288 0.376237 
thorax -3.065217 -1.573135 6.304636 
lowerneck -11.774552 0.205488 1.389980 
upperneck 17.655086 0.650202 -3.359501 
head 7.375061 0.093478 -1.263726 
rclavicle 0.000000 0.000000 
rhumerus -42.602128 -16.457682 -70.965742 
rradius 34.584358 
rwrist -6.028857 
rhand -12.819835 -10.506457 
rfingers 0.000000 
rthumb 13.266865 -40.064226 
lclavicle 0.000000 0.000000 
lhumerus -43.359934 1.998710 87.692475 
lradius 40.677948 
lwrist -11.799677 
lhand -6.300714 14.822357 
lfingers 0.000000 
lthumb 19.543265 43.860077 
rfemur -31.261015 -4.112019 10.357257 
rtibia 28.713355 
rfoot 22.273957 -16.778932 
rtoes 15.540116 
lfemur 16.409497 -0.863143 -32.077232 
ltibia 40.612472 
lfoot -36.528494 0.900254 
ltoes -19.148504 
240
root -8.217582 19.650020 1.756730 -1.057468 3.568889 9.206727
lowerback 1.923382 -2.485273 -10.382304 
upperback -2.494632 -3.683256 0.351083 
thorax -3.027303 -1.580348 6.331875 
lowerneck -11.774392 0.205150 1.361643 
upperneck 17.783507 0.655553 -3.343555 
head 7.417016 0.094765 -1.254235 
rclavicle 0.000000 0.000000 
rhumerus -42.970274 -16.537413 -70.738172 
rradius 34.635491 
rwrist -6.107595 
rhand -12.819827 -10.528757 
rfingers 0.000000 
rthumb 13.266853 -40.086498 
lclavicle 0.000000 0.000000 
lhumerus -43.520431 2.105259 87.635038 
lradius 40.628201 
lwrist -11.817553 
lhand -6.294562 14.798363 
lfingers 0.000000 
lthumb 19.549170 43.835483 
rfemur -30.926103 -4.278640 10.355118 
rtibia 28.920039 
rfoot 22.794683 -16.411665 
rtoes 15.911758 
lfemur 16.517642 -0.766902 -31.983693 
ltibia 41.299309 
lfoot -36.676867 0.475879 
ltoes -19.700512 
241
root -8.229340 19.583855 1.866382 -1.050266 3.624883 9.306125
lowerback 1.757213 -2.509372 -10.491569 
upperback -2.559858 -3.703620 0.324407 
thorax -2.994408 -1.587449 6.358043 
lowerneck -11.782013 0.206356 1.334884 
upperneck 17.913919 0.662895 -3.328515 
head 7.461116 0.096932 -1.245130 
rclavicle 0.000000 0.000000 
rhumerus -43.335923 -16.621999 -70.508639 
rradius 34.676472 
rwrist -6.172857 
rhand -12.817859 -10.551569 
rfingers 0.000000 
rthumb 13.268771 -40.109158 
lclavicle 0.000000 0.000000 
lhumerus -43.688342 2.216322 87.569428 
lradius 40.583889 
lwrist -11.830423 
lhand -6.291741 14.775601 
lfingers 0.000000 
lthumb 19.551895 43.812520 
rfemur -30.588667 -4.448660 10.355673 
rtibia 29.163098 
rfoot 23.295841 -15.979902 
rtoes 16.204781 
lfemur 16.627513 -0.674042 -31.886388 
ltibia 41.991796 
lfoot -36.807430 0.034888 
ltoes -20.226703 
242
root -8.241304 19.516751 1.976612 -1.044193 3.681578 9.403700
lowerback 1.597489 -2.533389 -10.599294 
upperback -2.626115 -3.724404 0.297312 
thorax -2.966292 -1.594468 6.383240 
lowerneck -11.790551 0.207643 1.309516 
upperneck 18.042614 0.670326 -3.315003 
head 7.504870 0.099086 -1.236730 
rclavicle 0.000000 0.000000 
rhumerus -43.703850 -16.704063 -70.280051 
rradius 34.716199 
rwrist -6.236464 
rhand -12.811041 -10.571891 
rfingers 0.000000 
rthumb 13.275350 -40.129057 
lclavicle 0.000000 0.000000 
lhumerus -43.863170 2.329384 87.499017 
lradius 40.544707 
lwrist -11.840506 
lhand -6.289593 14.755518 
lfingers 0.000000 
lthumb 19.553959 43.792255 
rfemur -30.247185 -4.624031 10.361805 
rtibia 29.428529 
rfoot 23.778173 -15.501548 
rtoes 16.453395 
lfemur 16.737598 -0.585279 -31.783472 
ltibia 42.692375 
lfoot -36.925752 -0.417534 
ltoes -20.746264 
243
root -8.253565 19.448301 2.087667 -1.039736 3.739278 9.498664
lowerback 1.446992 -2.557291 -10.704811 
upperback -2.693848 -3.745786 0.269617 
thorax -2.945021 -1.601369 6.407045 
lowerneck -11.800402 0.209047 1.286137 
upperneck 18.168849 0.677884 -3.303680 
head 7.548128 0.101223 -1.229336 
rclavicle 0.000000 0.000000 
rhumerus -44.075040 -16.782516 -70.052818 
rradius 34.754131 
rwrist -6.297703 
rhand -12.797280 -10.588648 
rfingers 0.000000 
rthumb 13.288603 -40.145001 
lclavicle 0.000000 0.000000 
lhumerus -44.047902 2.445312 87.421732 
lradius 40.512869 
lwrist -11.846599 
lhand -6.288410 14.739269 
lfingers 0.000000 
lthumb 19.555077 43.775854 
rfemur -29.899912 -4.807061 10.375922 
rtibia 29.725989 
rfoot 24.233554 -14.956493 
rtoes 16.638432 
lfemur 16.847991 -0.502382 -31.672521 
ltibia 43.404543 
lfoot -37.026547 -0.886322 
ltoes -21.256333 
244
root -8.266026 19.379333 2.198541 -1.037984 3.797195 9.587582
lowerback 1.305045 -2.580931 -10.806063 
upperback -2.760582 -3.767414 0.243045 
thorax -2.927643 -1.608274 6.430031 
lowerneck -11.812964 0.210844 1.265028 
upperneck 18.291082 0.685927 -3.294865 
head 7.590637 0.103505 -1.223069 
rclavicle 0.000000 0.000000 
rhumerus -44.442300 -16.859422 -69.827879 
rradius 34.787585 
rwrist -6.354774 
rhand -12.779159 -10.601532 
rfingers 0.000000 
rthumb 13.306063 -40.156766 
lclavicle 0.000000 0.000000 
lhumerus -44.236059 2.562352 87.339725 
lradius 40.485703 
lwrist -11.850111 
lhand -6.289421 14.725135 
lfingers 0.000000 
lthumb 19.554101 43.761791 
rfemur -29.547489 -4.993041 10.399661 
rtibia 30.043058 
rfoot 24.587487 -14.370310 
rtoes 16.656685 
lfemur 16.956384 -0.423948 -31.551598 
ltibia 44.124332 
lfoot -37.111368 -1.366727 
ltoes -21.754681 
245
root -8.278741 19.309709 2.309188 -1.039649 3.855389 9.668864
lowerback 1.173896 -2.604241 -10.901927 
upperback -2.826053 -3.789352 0.217891 
thorax -2.915181 -1.615187 6.451984 
lowerneck -11.828950 0.213138 1.246785 
upperneck 18.408261 0.694580 -3.289220 
head 7.632200 0.105968 -1.218223 
rclavicle 0.000000 0.000000 
rhumerus -44.804594 -16.934374 -69.605837 
rradius 34.815384 
rwrist -6.406582 
rhand -12.755532 -10.609525 
rfingers 0.000000 
rthumb 13.328835 -40.163250 
lclavicle 0.000000 0.000000 
lhumerus -44.428542 2.680797 87.251753 
lradius 40.464439 
lwrist -11.850362 
lhand -6.293201 14.713674 
lfingers 0.000000 
lthumb 19.550481 43.750681 
rfemur -29.188562 -5.182744 10.435554 
rtibia 30.384893 
rfoot 24.813299 -13.732185 
rtoes 16.464303 
lfemur 17.062252 -0.351151 -31.418082 
ltibia 44.853747 
lfoot -37.176015 -1.861804 
ltoes -22.238226 
246
root -8.291949 19.238451 2.421327 -1.043622 3.915062 9.743634
lowerback 1.049800 -2.627476 -10.994916 
upperback -2.891734 -3.811792 0.194182 
thorax -2.906903 -1.622124 6.474208 
lowerneck -11.845113 0.215124 1.229315 
upperneck 18.520865 0.702713 -3.284379 
head 7.672317 0.108180 -1.213787 
rclavicle 0.000000 0.000000 
rhumerus -45.168716 -17.008479 -69.383337 
rradius 34.839715 
rwrist -6.456501 
rhand -12.727984 -10.618446 
rfingers 0.000000 
rthumb 13.355404 -40.170413 
lclavicle 0.000000 0.000000 
lhumerus -44.627636 2.800123 87.158702 
lradius 40.448138 
lwrist -11.847213 
lhand -6.297624 14.706095 
lfingers 0.000000 
lthumb 19.546239 43.743528 
rfemur -28.817263 -5.383009 10.485715 
rtibia 30.752292 
rfoot 24.865007 -13.032829 
rtoes 16.151270 
lfemur 17.163443 -0.281406 -31.269051 
ltibia 45.607243 
lfoot -37.220049 -2.381147 
ltoes -22.715409 
